<?xml version="1.0" encoding="UTF-8"?><svg id="Layer_1" xmlns="http://www.w3.org/2000/svg" viewBox="0 0 142 83"><defs><style>.cls-1{fill:#c41230;stroke-width:0px;}</style></defs><path class="cls-1" d="M142.29999,82.62l-1.76996-1.27002-2.84003-2.54999-3.89001-6.67999V12.58997c0-.33997-.01996-.66998-.07001-1C132.91998,5.15997,124.29999.08997,113.79999.08997c-10.51001,0-19.12,5.07001-19.92999,11.5-.04999.33002-.07001.66003-.07001,1,0,.81.12,1.60004.37,2.37h-45.29999c.26001-.81.40002-1.63995.40002-2.5,0-.33997-.02002-.66998-.07001-1C48.39001,5.01996,39.77002-.04004,29.27002-.04004,18.76001-.04004,10.15002,5.01996,9.34003,11.45996c-.05005.33002-.07001.66003-.07001,1v59.5l-3.90002,6.67004-2.83002,2.54999-1.76996,1.27997h48.5v.03003h8.5l-1.78003-1.28003-2.83002-2.54999-3.88995-6.66998v-1.03003h44.52997v1.13l-3.89001,6.67999-2.83997,2.55005-1.77002,1.26996h48.5v.03003h8.5ZM49.27002,44.95996v-4h44.52997v4h-44.52997Z"/><path class="cls-1" d="M9.27002,11.45996h.07001c-.05005.33002-.07001.66003-.07001,1v-1Z"/><path class="cls-1" d="M49.27002,11.45996v1c0-.33997-.02002-.66998-.07001-1h.07001Z"/><path class="cls-1" d="M48.87,14.95996c.26001-.81.40002-1.63995.40002-2.5v2.5h-.40002Z"/><path class="cls-1" d="M93.87,11.58997c-.04999.33002-.07001.66003-.07001,1v-1h.07001Z"/><path class="cls-1" d="M93.79999,12.58997c0,.81.12,1.60004.37,2.37h-.37v-2.37Z"/><path class="cls-1" d="M133.79999,11.58997v1c0-.33997-.01996-.66998-.07001-1h.07001Z"/></svg>