<?xml version="1.0" standalone="no"?>
<!DOCTYPE svg PUBLIC "-//W3C//DTD SVG 20010904//EN"
 "http://www.w3.org/TR/2001/REC-SVG-20010904/DTD/svg10.dtd">
<svg version="1.0" xmlns="http://www.w3.org/2000/svg"
 width="593.000000pt" height="593.000000pt" viewBox="0 0 593.000000 593.000000"
 preserveAspectRatio="xMidYMid meet">
<metadata>
Created by potrace 1.14, written by Peter Selinger 2001-2017
</metadata>
<g transform="translate(0.000000,593.000000) scale(0.100000,-0.100000)"
fill="#000000" stroke="none">
<path d="M1079 4696 c-2 -2 -22 -6 -44 -9 -133 -19 -263 -62 -369 -121 -79
-44 -173 -129 -215 -194 -62 -97 -59 -38 -59 -1416 0 -1244 -1 -1256 -21
-1289 -11 -18 -26 -44 -33 -57 -88 -163 -148 -235 -270 -326 l-29 -22 1187 0
c652 0 1184 1 1183 2 -2 2 -29 23 -59 48 -84 68 -116 99 -144 141 -14 21 -26
40 -26 42 0 2 -27 49 -60 105 -33 56 -60 110 -60 121 0 19 20 19 925 19 l925
0 0 -25 c0 -14 -36 -88 -81 -164 -82 -141 -105 -167 -247 -278 -22 -17 19 -18
1162 -18 877 0 1182 3 1173 11 -7 6 -49 43 -93 82 -75 65 -91 87 -160 207 -6
11 -27 47 -46 80 l-36 60 1 1260 c0 1393 4 1316 -64 1418 -78 119 -288 251
-445 281 -10 2 -37 9 -59 14 -64 17 -142 25 -260 25 -101 0 -231 -10 -246 -19
-4 -2 -24 -6 -45 -10 -140 -22 -322 -114 -423 -214 -87 -88 -131 -191 -131
-312 0 -40 -4 -58 -12 -58 -15 -1 -1795 -1 -1819 0 -14 0 -17 16 -21 94 -3 80
-8 102 -36 158 -86 175 -296 301 -587 352 -69 12 -346 21 -356 12z m2832
-1733 c2 -16 2 -52 -1 -82 l-5 -54 -900 1 c-495 0 -910 1 -922 1 -22 1 -23 5
-23 81 l0 80 924 0 924 0 3 -27z"/>
</g>
</svg>
